<?xml version="1.0" encoding="utf-8"?>
<!-- Generator: Adobe Illustrator 28.0.0, SVG Export Plug-In . SVG Version: 6.00 Build 0)  -->
<svg version="1.1" id="Layer_1" xmlns="http://www.w3.org/2000/svg" xmlns:xlink="http://www.w3.org/1999/xlink" x="0px" y="0px"
	 viewBox="0 0 494.7 497.9" style="enable-background:new 0 0 494.7 497.9;" xml:space="preserve">
<style type="text/css">
	.st0{opacity:0.75;fill:#FFFFFF;}
	.st1{clip-path:url(#SVGID_00000170989099239766641040000015431202162888809371_);fill:#211E1F;}
</style>
<circle class="st0" cx="247.8" cy="247.8" r="246"/>
<g>
	<defs>
		<rect id="SVGID_1_" width="494.7" height="497.9"/>
	</defs>
	<clipPath id="SVGID_00000031182644773535621240000010149951985070658991_">
		<use xlink:href="#SVGID_1_"  style="overflow:visible;"/>
	</clipPath>
	<path style="clip-path:url(#SVGID_00000031182644773535621240000010149951985070658991_);fill:#211E1F;" d="M239.8,497.7
		c-5.3-0.5-10.6-1.2-15.8-2.2c-4.2,0.1-8.4-0.2-12.6-1.3c-6.1-1.6-12.5-2.1-18.5-4.1c-3.8-0.4-7.7-0.2-11.4-1.5
		c-7.1-2.3-14.9-2.8-21.5-6.5c-2.4-2.5-4.9-4.2-8.5-4c-3.8-1.9-8.2-2.4-11.9-4.6c-3.3-1.3-5.5-4.1-8.9-5.1
		c-3.7-2.2-7.7-3.9-11.3-6.3c-3.5-3-8.4-3.8-11.8-7c-5.2-3.5-10.2-7.4-14.4-12c-3.7-2-4.2-6.7-7.8-8.5c-3.6-0.6-5.7-3.9-7.9-6.2
		c-3.7,0.1-4.7-4.3-7.4-6.3c-3.5-3.5-6.3-7.8-10.3-10.9c-3.2-1.7-4.6-5.5-7.1-8c-3.3-4.1-7.7-7.4-10-12.2c-2.7-2.2-3.4-5.7-5.5-8.3
		c-1.5-3.2-4.3-6.1-5-9.5c-1.9-3.1-2.9-6.6-4.8-9.8c-0.4-3.8-4.4-5.4-5.3-9.2c-1.9-4.1-4.2-8-5.2-12.4c-1.5-3.7-1.8-7.9-3.6-11.4
		c-1.6-2.8-0.9-7-3-8.9c2.6-1.6-3.3-5.1-1.3-7.8c0.8-0.3,5.1-0.5,2.3-0.5c-3.8,0.4-4.7-4.2-4.2-7.1c0.2-3-3.9-3.9-2.9-7.5
		c-0.9-3-1.8-6.2-1-9.1c-3.3-1.2,0.6-5.8-1.3-7.9c-0.6-2.1,2-3.8,0.5-6.2c-0.7-2.7-1.7-5.8-1-9.2c-0.3-2.9,2.4-5.8-0.8-7.2
		c1.3-3.4-1-7.3,0.9-10.5C3,245,1,241.2,1.6,237.4c0.1-8.3-1.1-16.8,1.3-24.9c-1.5-2.5,0.2-4,2.7-4.1c-0.7-0.7-4.5-0.9-3-3.6
		c1-1.6,3.7-1.8,1.2-3.8c-2.4-2.7,1.5-4.3,0-7.5c0.6-3.3,0.4-6.8,1.9-10.1c-0.5-3.3,5.1-1.5,4.7-3.6c-2.8,1.3-4.3-0.3-2.8-3
		c-0.4-3.7,2.8-6.1,3.4-9.7c1.2-3.6,3.1-6.9,4.8-10.4c1.4-2.9,1.9-6.1,3.6-8.8c1.5-2.9,3.1-5.8,4.4-8.9c1.2-4,5.1-6.6,5.9-10.8
		c1.1-3.3,3.6-5.9,5-9c1.1-3.5,4.3-6.3,6.3-9.3c2.3-3,3.4-6.8,6.1-9.5c0-1.8,4.8-0.2,2.1-2.3c-1-3.6,4.8-4,5.4-6.2
		c-0.1-3.3,4.4-5.4,6.2-8c2.7-2.7,4.4-6.2,7.6-8.6c2.1-2.1,4.5-3.3,5.1-6.3c1.3-1.7,6.2,0,6.1-1.6c-4.2-0.8,2.6-3,2.8-5.2
		c3.1-2.7,7.4-3.6,10.1-7c3.3-2,5.8-4.9,8.8-7.3c2.7-2.3,6.2-3.8,8.5-6.4c1.3-3,6.9-2.1,7.4-6c2.3-2.2,6.1-1,7.2-3.8
		c3.7-0.6,5.7-4.5,9.3-5.1c3.6-2.2,8-3,11.2-5.9c3.2-2.8,8.1-2.2,11.8-4.3c1.6-0.6,3.3-1.2,1.4-2.4c1.4-2,4.2,2.4,5.8-0.2
		c1.7,0.7,4.3-1.7,4.7-1c1.6,0.7,2.3-3.6,4.9-2c3.2-0.3,6.4-1.2,9.6-1.6c-0.2-2.3,3.6-2.3,5.1-2.7c1.6,1.3,6.2,1.6,3.3-0.8
		c2.7-2.2,6.6-1,9.9-1.3c6.7-0.7,13.4-2.2,20-3.5c6.3-0.7,12.7-0.3,19-0.5c13.9,0.1,27.8-0.1,41.6,0.5c3.1,1.3,6,1,9.4,1.1
		C295.7,2,300,3,304.4,3c3.3,1,6.8,1,10,2.5c2.7,1,7.4,1.3,6.4,4.3c3-3,7.4,0,10.8,1c3.5,0.7,6.7,2.3,10,3.7c4.4,1,8,3.8,12,5.8
		c2.3,2.8,6.3,3,8.7,5.7c1.3,1.1,1.8,3.6,3,0.9c3.1,1.6,6.2,4,9.6,5.5c3.8,2.2,7.8,4.4,10.8,7.6c3.4,3,7.6,4.6,10.9,7.6
		c2.6,2.6,6.3,3.8,8.5,6.8c3.3,1.9,6.1,4.4,9.1,6.8c3.8,1.7,5,6.2,7.9,8.8c3.9,1.2,5.6,4.7,8.8,6.6c4.3,2.7,6.8,7.3,10.3,10.9
		c1.2,1.9,6.6,6.6,2,7.3c1.8,1,3.9-1.1,5.4,1.7c4.1,3.5,5.4,9.1,9,13c1.5,2,0.4,5.9,3.7,6c0.3,3.8,4.1,5.7,5.2,9.2
		c1.5,3.4,2.1,7,3.8,10.3c1.1,3.4,3,6.7,4.3,10.2c0.9,3.2,1.6,6.5,3.2,9.5c1.7,3.5,2.1,7.4,2.8,11.1c1.8,3.1,1.9,6.8,3.1,10.1
		c1.2,4.7,3.1,9.2,3.4,14.1c1.7,5.4,2.6,11,3.2,16.7c1,2.9,0.3,6.6,2.4,8.7c0,1.7-2.8,2.9-0.3,4.3c1.9,5.4,1.7,11.3,1.2,16.9
		c0.8,3.3,1,6.7-0.5,9.9c0.2,2.2,1.4,4.3,0.7,6.5c2.5,2.3-2.3,6.2-0.1,8.2c-0.3,3.4-1,6.7-1.3,10.1c-0.5,3.7,2.7,7.4,1.1,10.8
		c-2,2.8,1.2,7.4-2.2,9.2c-0.6,2.8-1.2,5.7-1.1,8.6c-1.1,3.8-2.1,7.7-2.8,11.5c-0.5,1.9-2.2,2.8-0.2,4.2c-0.9,3.1-0.6,6.6-4,8.2
		c-0.3,3.2-1.4,6.1-2.1,9.2c-0.5,3.1-0.1,6.2-2.3,8.9c-0.1,3.5-2.3,6.3-3.2,9.4c-0.8,4.1-3.3,7.7-4.3,11.8
		c-2.3,3.5-5.9,6.3-7.3,10.4c-2.5,2.2-3.6,5.4-5.9,8c-2.5,2.2-3.3,5.8-5.8,8c-1.2,3-4.5,4.1-5.9,6.8c-2,3.2-5,5.3-7.9,7.8
		c-1.1,2.7-2.4,7.8-6.7,6.1c-1.6,1.9-1.5,6-4.2,7.9c-2.9,2.8-5.6,6.1-9.2,7.9c-2.2,1.7-3.7,5.3-6.4,7.3c-3.6,3.5-7.2,7-11.6,9.6
		c-3.5,1.5-5.4,5.4-8.9,7.3c-2.6,2.5-6.5,2.8-8.7,5.8c-4.2,2.4-7.9,5.9-12.4,8c-5.8,3.1-12,5.6-17.6,9.1c-3.6,1.6-7.9,1-11.1,3.5
		c-3.8,2-8.3,1.2-11.9,3.6c-3.3,1.6-6.7,2.8-10.2,4.1c-4.8,2.8-10.6,3.2-15.4,5.9c-3.9,1.6-8.2,0.7-12,2.5
		c-3.6,0.6-7.1,1.8-10.9,1.9c-8.4,0.7-16.8,0.9-25.1,2.4c-4.5,0.4-9,0.6-13.4,1C241.5,497.9,240.6,497.8,239.8,497.7L239.8,497.7
		L239.8,497.7z M268.5,487c3.9-0.7,7.7-1.7,11.7-1.8c3.9-0.4,7.6-1.7,11.5-2c3.7-0.8,7.5-1.2,11.2-1.6c4.6-0.8,9.1-1.9,13.3-4
		c3.9-0.6,7.4-2.2,11.1-3.2c2.7-1.5,4.3-3.6,7.4-4.2c3.5-0.4,6.6-2.5,10-3.4c3.4-1.8,7.3-2.6,10.4-4.8c5.1-1.6,8.6-6.2,13.8-7.7
		c2.8-1.9,6-3,8.8-4.9c4.9-1.2,7.8-5.8,12.1-8c3.3-3.3,7.4-5.6,10.6-9c2.6-2.5,5.9-4,8.4-6.7c5.2-4.7,10.4-9.3,15-14.6
		c3.5-3.1,6.7-6.5,9.7-10.1c2.9-2.4,5.3-5.1,7-8.5c2.2-2.4,3.9-5.1,6.2-7.4c1.5-2.8,3.4-5.3,4.9-8.1c2.4-4.3,6-7.8,8.5-12
		c1.7-3.2,4-6.1,5.5-9.4c0.5-3.2,2.1-6.4,3.5-9.4c1.7-3.1,2.4-6.7,4.4-9.6c1.5-3.9,2.4-8,4.2-11.7c0.8-3.4,2.8-6.5,3.4-10
		c2.2-3,2.7-6.7,2.9-10.3c0.3-4.7,1-9.4,1.7-14c0.1-3.2,3-5.8,2.1-8.9c-0.1-3.9,0.4-8,0.9-11.6c1.1-2.2-2-4.4-0.5-7
		c0.2-3.2,0-7.4,2.5-9.1c1.7-0.1,2.9-0.1,0.5-0.3c-4.8-0.7-0.9-6.6-2.1-9.7c-1-3.4-1.2-6.9-1-10.4c0.6-3.9-1.4-7.3-1.4-11.1
		c0.5-3.7-2.1-6.6-1.6-10.2c-0.2-5-1.5-9.8-2.8-14.6c-0.9-3.6-0.1-7.8-2.6-10.8c-1.2-3.8-1.6-7.9-2.9-11.7
		c-0.5-3.8-0.8-7.8-2.9-11.1c-0.6-3.2-3.2-6.2-2.5-9.4c-0.4-3.9-2-7.7-3.6-11.3c-1.3-3.4-2.7-6.5-4-9.9c-1.7-2.8-3.4-5.5-4.9-8.5
		c-2.3-2.7-3.7-6.1-6.4-8.6c-2.5-3-5-6.1-7.2-9.3c-1.2-4.3-5.2-7-7.5-10.7c-6.6-9-14.2-17.2-21.8-25.4c-2.3-2.9-6.3-4.2-8.6-7.2
		c-3.9-3.8-8.2-7.1-12.5-10.3c-2.5-2.8-5.7-4.6-8.5-7c-4.5-3.4-9-6.8-14-9.3c-2.3-2.3-4.3-4.2-7.8-4.2c-2.9-1.2-5.1-3-7.9-4.5
		c-3.2-1.4-6.1-3.6-9.5-4.4c-3.5-1.7-7-3.4-10.4-5.3c-3.4-1-6.9-2.9-10.4-4c-3.2-2-6.9-2.5-10.1-4.4c-4.2-0.4-8.2-2.3-12.5-2.3
		c-3.5-0.3-2.8-2.3-0.1-3c-3.2-2-3.8,3.3-7.3,1.9c-8-0.8-15.8-3.2-23.9-3.8c-3.5-1.4-7.1-0.7-10.7-0.3c-9.8,0.3-19.8-0.4-29.4,1.9
		c-4.1,0.7-8.2-0.5-12.2,0.3c-1.3,0.7-2.5-3.3-2.8-1.1c2.5,1.9-4.6,2.8-6.2,3.3c-9.5,2.3-19.3,3.5-28.7,6.4
		c-3.2,0.6-6.1,0.9-8.8,2.9c-2.9,1-5.3-2.2-7.9,0.5c-0.8,1.1,2.4-0.5,3.1-0.6c0.7,4-6.2,3.8-8.5,6.2c-3.6,1.6-7.1,3.8-11,4.7
		c-3.6,1.6-6.9,4-10.7,5.4c-2.9,1.7-6.1,3.2-9.3,4.4c-2.2,1.8-4.2,3.7-7.1,4.7c-2.8,1.8-5.8,3.2-8.3,5.2c-2.8,2.6-6.4,3.5-9.1,6
		c-2.7,2.7-5.9,4.8-8.9,7.4c-2.8,1.7-4.3,5-7.7,5.9c-4.6,5.4-10.1,10-15.1,15c-3.5,3-6.6,6.4-8.9,10.4c-2.4,2.5-5.2,4.6-7.3,7.5
		c-2.3,3-4.2,6.3-6.7,9.1c-1.9,3.4-4.3,6.4-6.2,9.8c-1.8,3.3-4.4,6.3-5.5,9.9c-3.2,1.5-2.6,5.8-5.2,7.6c-0.3,1.8-2.2,2.3-2,4.6
		c-1,3.4-4.1,5.2-4.6,8.8c-2.1,3.4-2.2,7.6-5,10.5c-1.6,2.4-1.7,5.6-3.1,7.7c1.5,2.7-3.3,3.8-2.7,5.8c-0.5,2.8-2,6.2-2.3,9.4
		c-1,2.2,0,6.4-2.3,7.1c1.2,2.4-2.9,2.4-0.4,4.8c0.4,2.9-0.9,6.8-3.1,8.2c3.2,0.8,0,4.9-2.5,3.8c1.3,0.6,4.5,3.7,2.7,6.3
		c-0.8,4.1,0.9,8.2-0.1,12.2c-0.6,6.5-0.2,13.1-1,19.6c-1.1,3.8,1.3,7.6-0.3,11.2c0.9,2.6,0.5,6.4,1,8c-3.6,0.6,1.4,1.9,0.6,4.3
		c0.8,5.2,2,10.8,0.4,16c2.6,2.1-2.5,0.4-0.6,2.4c3.4,3.5,3.5,8.7,3.6,13.2c1.5,3.2,3.4,6.3,3.5,10c0.8,3.3,2.7,6.4,1.8,9.6
		c2.2,1.3,0.4,2.6,2.8,3.8c1,4.2,0.6,9.1,3.2,12.8c1.8,2.8,3.9,5.7,5,9c1.3,4.1,4.3,7.4,5.3,11.6c1.8,2.8,3.9,5.6,5.3,8.7
		c2.7,5,5,10.3,8.3,14.8c1.8,3.2,4,6.2,6,9.3c1.7,3.1,3.9,5,5.6,7.8c2.1,2.9,4.3,5.9,6.9,8.6c2.3,2.9,5.6,4.8,7.6,8
		c2,2.8,4.7,5,6.4,8c4.7-0.3,5.2,5.3,8.6,7.5c2.8,2.3,6.2,4,8.1,7.4c0.5,2.4,3.2,2.7,4.8,2.7c-2,1.6,2.1,2.4,2.1,4.1
		c3.1,1.8,6.4,3.4,9,5.9c3.5,1.6,6.5,4.1,10.2,5.3c3.8,1.6,6.9,4.3,10.8,5.7c5.1,2.6,10.1,5.7,15.6,7.5c2.8,2.3,6.3,3.5,9.6,4.8
		c3.6,1.6,7.3,3.3,11.1,4.3c4.1,0.4,7.6,3.4,11.8,3.3c4,1.1,7.8,3,11.9,3.6c3.8,0.7,7.6,0.6,11.3,1.7c9.3,1.4,18.8,1.7,28.2,2.8
		c11.8,0.3,23.7,0.2,35.5-0.8L268.5,487L268.5,487z M241,477.5c-3-0.4-6.5-0.2-9.7-0.7c-3.6-1-7.4-1.5-10.9,0.2
		c-3.5,0.3-6.9-1.3-10.4-1.4c-5-0.5-10-1-14.7-2.5c-4-0.5-7.7-2.3-11.7-3.2c-3.7-1.4-7.6-1.2-11.1-3.1c-2.9-2-6.3-3.1-9.4-4.8
		c-3.5-0.9-6.4-3.2-9.9-3.9c-2.9-2.5-6.6-4.1-10.3-5.1c-3.4-1.1-6.6-2.1-9.4-4.4c-3.3-1.8-6.7-3.4-9.9-5.2c-3.7-1.1-5.8-5.2-9.6-6.8
		c-5.5-2.6-9.4-7.4-14.3-10.8c-2.4-2.6-5.5-4.2-8-6.5c-2.4-2.3-4.5-4.9-6.5-7.6c-2.2-3.1-4.6-6-7.8-8.3c-2.4-3.4-5.5-5.9-8.1-9
		c-2.2-3.1-4.3-6.1-6.5-9.1c-1-3.8-5-4.9-7-7.8c-3.5-4.6-6.5-9.5-9.2-14.6c-1.9-5.5-6.5-9.6-7.8-15.3c-1.9-2.8-2.6-6-4.7-8.7
		c-1.5-2.9-2.8-5.8-3.8-8.9c-2.1-3.1-3.1-6.7-4.1-10.3c-0.7-1.9-1.5-7,0.7-2.9c2.1,3,4.1,5.9,4.7,9.7c1.7,4.6,4.1,8.8,6.4,13.1
		c1.3,3.9,3.6,7.5,5.5,11.1c2.1,3.1,3.8,6.4,5.5,9.7c4.7,7,9.2,14.1,14.1,21c2,3.4,4.8,6.1,7.2,9.1c1.3,3.2,4.5,4.7,6.3,7.7
		c3.1,2.2,6.1,4.8,8.3,7.9c4.4,5.3,9.6,9.9,14.7,14.6c4.4,3.4,8.3,7.2,12.6,10.7c3.7,3,7.7,5.5,11.3,8.6c7.4,4.8,15.2,9.1,23.4,12
		c7.9,3.9,16.6,6,24.7,9.3c8.2,3.2,16.8,5.1,25.2,7.7c9,2.1,18.3,3,27.5,3.9c13.4,1.1,26.9,0.8,40.3,0c5.9-1.3,12-1.4,17.9-2.4
		c6.2-0.9,12.6-1,18.4-3.5c6.5-0.5,12.7-2.7,19-3.9c6.8-2.1,13.2-5.1,19.9-7.3c9.5-3.4,18.3-8.7,27.5-12.9c3.9,0.5-2,3.9-3.5,4.5
		c-3.9,1.6-6.6,5.4-10.8,6.5c-2.9,2.5-6.5,3.4-9.7,5.2c-4.2,3.3-9.8,3.7-14.6,5.8c-3.3,2-7.2,1.6-10.6,3.1c-3.8,0.4-7.5,1.3-11,2.6
		c-3.6,0.7-6.9,2.8-10.7,2.5c-12.2,1.8-24.4,3.5-36.7,4.3c-6,0.3-12.1,1-18.2,0.5L241,477.5L241,477.5z M229.8,469
		c-3.2-1-6.6,0.1-9.8-1.5c-4.3-0.3-8.3-2.3-12.6-2.9c-3.8-1-7.6-1-11.4-1.6c-4.1-1.4-8.6-0.5-12.6-2.4c-6.1-1.6-12.5-2.4-18-5.6
		c-4.4-1.8-8.8-3.6-12.9-6.2c-5.2-2.3-9.1-6.9-14.6-8.4c-2.2-2.4-5.4-3.9-7.7-6.3c-3.5-3.1-8.3-4.5-11.1-8.3
		c-3.7-2.4-6.5-5.9-10.1-8.4c-4-3.5-7.2-7.7-11.6-10.7c-3.2-2.1-4.9-5.6-7.6-8.2c-2.7-2.4-4.4-5.6-6.8-8.2c-3.8-3.4-6.8-7.6-10-11.5
		c-2.9-2.6-4.3-6.4-6.9-9.3c-1.4-2.9-3.5-5-5.5-7.6c-1.5-3.2-3.8-5.9-5.3-9.1c-2.7-4.7-5.7-9.3-7.3-14.4c-1.8-2.5-2.8-5.3-4.3-8
		c-1.2-3.3-2.4-6.5-3.7-9.7c-2-5.7-3.6-11.6-6.3-17c-0.4-3.3-2.5-6-2.8-9.4c-0.7-3.9-1.6-7.8-2.6-11.5c0.1-2.5-1.5-4.4-0.2-6.6
		c-1.3-5-1.5-10.2-1.8-15.4c0.8-6.3,0.5-12.7,1.9-18.8c0.5-3.8-0.5-7.9,1-11.4c2.4-0.8,0.6,4.8,1,6.4c-0.8,11.1-0.2,22.2-0.2,33.4
		c-2.4,1.7,1.6,4,1,6.8c1,5.5,0.6,11.3,3,16.5c-0.3,3.4,2,6.5,2.1,9.7c0.6,4,4.1,7,4.7,11c1.1,3,3,5.8,3.6,8.9
		c3.3,3.1,4.2,7.9,6.3,11.8c1.6,3.5,3.4,6.9,4.5,10.5c1.6,2.9,3.6,5.1,5.6,7.7c2,1.4,0.3,3.7,2.9,3.7c2.1,2.7,4,5.7,6.2,8
		c1.1,3.6,4.4,6,5.6,9.5c2.5,2.8,5.1,5.5,6.8,9c2.5,2.6,4.8,5.5,7,8.2c2.8,1.7,4.1,5.1,6.6,7.2c2.4,1.6,3.4,6,6.7,5.2
		c0.3,3.3,3.5,5.7,5.9,7.4c2.3,2.3,5.4,3.6,7.6,6.1c3.1,3,6.9,5.2,10,8.3c3.3,3.1,7.1,5.5,10.9,7.8c3.2,2.6,7.2,4,10.5,6.5
		c3.5,2.3,7.4,3.8,10.9,6.3c3.6,2.2,7.8,2.3,11.8,3c3.4,0.9,6.8,3.9,10,3.8c2.4-2,4.6,2.9,7.7,2.3c3.5,1,6.7,2.7,10.4,3
		c5.4,1.7,11,3.1,16.6,3.9c6.5,1.4,13.1,2.4,19.8,2.2h7.6c9.1,0.7,8.7,1.3,13,0.3c3-0.9,6.5-0.6,9.8-1.7c4.2-0.6,8.2-2,12.5-1.7
		c3.1-1,6.3-1.2,9.5-1.6c3.5-0.8,6.9-1.4,10.4-2c4,0.4,7.3-2.2,11.1-2.3c1.8-0.1,4.5-1.1,1.2-0.8c1.6-2.1,6.1-0.5,8.3-2.9
		c2.2,0.3,4.5,0.5,4.7-2c3.4-1.2,6.8-2,10.2-3.5c3.2-1.8,6.8-2.2,9.8-3.8c2.5-3.2,6.8-3.1,10.2-5c3.8-0.6,5.2-4.4,9-4.6
		c1.4-2.8,5.9-2.9,8-5.8c2.8-3,6.9-4,9.6-7.2c3.2-1.4,5.7-3.8,8.6-5.8c2.9-2.3,5.7-4.9,7.9-7.8c2.1-2.9,6-4.1,8.1-7.1
		c3.6-3.9,7.4-7.6,11.6-10.8c1.9-2.6,3-5.9,5.7-8c2.8-2.5,4.6-5.7,6.6-8.9c2-2.8,4.5-5.5,5.7-8.8c2.2-2.9,3.3-6.6,5.8-9.4
		c2.7-5.1,6-10,7.9-15.5c2.1-5.9,5-11.5,6.6-17.5c1.4-3.7,1.8-7.9,4.4-11.1c1.2-3.2,2.5-6.5,3.1-10c1.5-7.6,4-15.1,4-22.9
		c1.7-14.9,0.9-30,0-45c-0.9-10.2-3.3-20.2-4.2-30.4c-0.3-3.3-2.5-5.8-1.2-9.1c-2.1-2.8-1.4-6.9-3.7-10.1c-2.2-4.1-2.8-8.9-5.1-12.9
		c-1.7-1.1-3.7-0.4-0.9-1.5c0.8-3-2.5-6.1-3.2-9.1c-0.5-3.6-2.3-6.6-3.7-9.9c-1.6-3.3-3.8-6.3-4.5-10c-2.1-3.9-4.6-7.6-6.9-11.4
		c-3.2-5-7.6-9-10.7-14c-4.5-4.9-8.3-10.6-12.8-15.5c-5.5-6.6-11.7-12.4-18.5-17.6c-5-4.1-9.7-8.6-15.3-11.8c-1-3-3-5-6.1-6
		c-3.9-2.7-8-5-12-7.7c-3.6-3.3-8.7-4.4-12.7-7.1c-3.4-1.2-6.5-3.4-10-4.4c-3.3-1.6-6.7-2.8-10.2-3.6c-2.6-1.1-6.2-2.1-8.2-3.6
		c6.4,0.8,12.3,3.8,18.6,5.2c3.2,1.2,6.5,2.3,9.5,4.1c3.2,1,6.5,2.2,9,4.7c3.4,2.2,7.2,3.7,10.3,6.4c3.2,1.5,5,5.2,8.6,5.3
		c2.8,2.7,6.4,4.7,9.5,7.1c4,3.1,7.6,6.6,11.4,9.9c9.3,8.5,17.8,17.9,26.2,27.2c1.6,3.1,4,5.5,6.5,8c2.4,2.7,4.5,5.7,6.4,8.7
		c2.5,2,3.3,5.7,5.2,8.4c1.4,3.3,3.2,6.1,5,9.2c1.9,3.5,3.1,7.2,5.1,10.6c1,3.7,3.5,6.6,4.3,10.3c2.5,2.8,2,6.9,4,9.8
		c2,5.1,4.7,10.2,6,15.6c0.9,2.3,1,4.6,2.4,6.6c0.1,4,1,8,1.6,11.9c0.5,3.2,2.1,6.8,1.4,9.6c1.1,5.3,0.9,10.8,1.8,16.2
		c2.8,2.9-0.1,7.2,1,10.9c0,3.4,1.1,7.1,0.3,10.4c-1.9,1.1,1.8,2.1,0.3,4c-0.6,4.8-0.6,9.7-1.5,14.5c1.4,3.2-0.9,6.7-0.7,10.2
		c-0.9,3.4-1.3,6.8-1.7,10.2c-1.8,3.3-1.8,7.1-2.4,10.7c-0.6,4-3.1,7.3-3.8,11.2c-1.3,2.9-2.3,5.8-3.1,8.8c-1.7,3.5-2.6,7.3-3.6,11
		c-1.9,2.7-3.2,5.9-4.2,9.1c-1.8,5.6-6,10.1-7.7,15.7c-2.5,2.6-4,5.8-5.9,8.9c-1.2,2.8-2.9,5.7-5.1,7.8c-2.6,5.1-6.1,9.8-9.4,14.5
		c-3.1,2-3.2,6.9-7.1,7.6c-2.8,0.5-1.1,5.3-4.5,6c-2.8,2.4-4.5,5.9-7.6,8.1c-2.5,2.6-6,4.1-8.6,6.3c-2.2,3.1-5.7,5.3-8.6,8
		c-3.1,2.3-6.3,4.1-9.1,6.7c-3.5,2-7.3,3.7-10.5,6.2c-6.4,3.6-12.9,7-19.4,10.3c-4.3,2.2-8.9,3.5-13.1,5.8c-2.8,2.3-6.7,1.8-10,3.1
		c-4.7,0.5-8.9,2.7-13.5,3.6c-5.3,1.5-10.8,2.4-16.1,4.2c-3.5,1.1-7.2,1.4-10.8,2.1c-9.3,1.1-18.6,1.2-27.9,2
		c-3.4,1.6-6.9-0.3-10.4,0.5C238.9,469.2,234.3,469.6,229.8,469L229.8,469z M355.6,444.8c-1-2.9,4.4-1.4,1.4,0.3
		C356.5,445.2,355.9,445.2,355.6,444.8z M370.2,441.8c2.9-2.7,6.5-4.7,9.8-6.9c3-2.3,6-4.5,8.7-7.1c4.9-3.9,9.7-7.9,14-12.5
		c5.4-5.4,11-10.5,15.9-16.4c3-2.4,5.1-5.9,7.4-9c2.6-3,5-6.3,7.3-9.6c2.5-3.2,4.6-6.6,7-9.9c1.5-2.9,4.1-5.4,5.7-8.4
		c1.7-3.7,4-7,6.2-10.4c1.7-3.8,3.7-7.4,5-11.4c2-3.8,2.9-8.1,5-11.9c1.4-3.9,1.9-8,3.5-11.9c1.9-5.1,2.8-10.4,3.8-15.7
		c1.7-5.8,1.5-11.9,3.1-17.7c1.5-8.1,2.9-16.3,2.9-24.5c-0.1-6.6,1.5-13.1,1-19.7c0.3-4.2-0.5-8.4-0.2-12.6c0.9,1.4,1.8,6.5,2.4,9.3
		c0.5,4.3,1.3,8.7-0.3,12.8c-1.6,3.5,0.7,6.9-0.8,10.2c-0.5,5.7,0.1,11.4-0.6,17.1c-0.7,3.3-1.1,6.7-2.1,10c-0.5,3.5,0,7.1-1.1,10.4
		c-0.9,3.1-2.5,6.4-2.8,9.8c-1,3.5-0.8,7.3-2.5,10.7c-0.1,3.6-1.6,6.5-2.2,10.1c-1.7,3.7-2,8-4.5,11.3c-0.4,3.3-2.9,5.3-3.6,8.4
		c-1.6,3.1-3.8,5.8-4.4,9.4c-1.7,4.6-6.3,7.3-8,12c-1.8,2.9-4.3,5.3-5.6,8.5c-1.8,3.8-4.6,6.8-6.9,10.1c-2.1,3.7-5.5,6.6-7.5,10.4
		c-2.8,3.6-6.2,6.6-9.7,9.3c-2.1,3.2-5.4,5.2-8,8c-3.5,3.2-6.1,7.2-10.1,9.7c-3.2,1.7-5.4,4.6-8.5,6.5c-4.5,3-8.8,6.2-13.2,9.4
		C375.1,440,370.9,443.7,370.2,441.8L370.2,441.8z M18.7,295.4c-0.7-3.1,1.8,0.2,0.2,0.5L18.7,295.4z M17.6,290.2
		c-0.9-3.6-1.4-7.4-1.5-11.1c2.2,1.6,1.7,6.1,2.7,8.8C18.3,288.4,18.9,292.1,17.6,290.2z M14.5,262.7c-0.6-6.7-0.2-13.4-0.3-20.1
		c-0.1-4.7,0.3-9.3,1.1-13.9c0.8-6.9,0.2-14.1,2.3-20.9c1.7-5.6,2.4-11.6,4.4-17.1c0.3-3.6,2-6.6,3.2-10c0.9-3.5,1.1-6.9,3.5-9.7
		c2.1-3.9,2.8-8.5,5.4-12.2c1.5-3.2,2.7-6.2,4.4-9.4c2.1-4.2,3.9-8.5,6.6-12.4c2.1-3,3.8-6.5,5.8-9.7c2.6-5.7,6.7-10.4,10.6-15.3
		c3.4-4.3,5.6-9.5,9.4-13.6c4.2-5.3,9.5-9.7,13.4-15.2c3-2.5,5.8-4.8,9-7c5.6-3.8,10.1-8.9,16-12.2c1.3-1.6,5.3-2.1,2.8,0.5
		c-2.8,1.8-5.7,3.6-8.3,5.8c-2.5,3.1-6.7,4.5-8.5,8.2c-2.5,2.6-5.9,4.1-8.2,7c-3.3,3.3-6.8,6.4-9.6,10c-2.2,3.2-5,6.1-7.3,9.2
		c-1.8,3.6-4.8,6.4-6.9,9.7c-1.3,3.2-3.3,6.1-5.4,8.8c-1.5,3.2-4,5.7-5.8,8.7c-1.3,3.5-3.7,6.3-4.8,9.9c-3,4.2-5.4,8.8-8.3,13.1
		c-1.5,3.4-4,6.2-4.7,9.9c-1.5,2.9-3.2,5.8-3.8,9.1c-2.7,4-3.9,8.7-4.8,13.4c-0.8,3.5-2.6,6.9-2.6,10.5c-0.4,4.4-1.3,8.8-1.6,13.3
		c-0.7,5.6-1.1,11.4-3.5,16.6c0.9,3.6-0.5,7.3-0.5,11.1c-0.7,5.8-1.2,11.7-0.8,17.6C17.4,257.8,17,264.3,14.5,262.7L14.5,262.7
		L14.5,262.7z M29.6,228.3c-1.8-1.4,0-6.7,1.3-5.8C32.7,225.2,30.5,226.3,29.6,228.3z M30.3,217.2c0.8-4.9,1.4-9.9,1.7-14.8
		c2-8,4.6-15.7,7-23.6c1.5-4.1,2.6-8.5,5.3-12c2.2,2.2-1.9,5.9-2,8.8c-1.3,3.6-2.4,7.1-3.8,10.6c-0.7,3.6-1.4,6.9-2.8,10.3
		c-1.4,6.2-1.5,12.6-3.6,18.6C33.1,217.3,29.8,222.4,30.3,217.2z M470,195c-0.3-4,3.6,1.9,0.4,0.8l-0.2-0.3L470,195z M469.4,190.6
		c-1.3-4.4-2.1-8.9-4.1-13c-0.8-3.4-1.5-6.8-2.6-10.1c-0.7-3.4-1.5-6.8-2.7-10.1c-2.9-5.7-4.3-12-7.5-17.6c-2.6-5.1-4.8-10.4-8-15.2
		c-1.1-4.3,3.4,0.5,3.6,2.3c3.5,5.2,6.6,10.6,8.6,16.6c1.3,3.8,4,7.1,4.6,11.1c1.4,3.3,2.8,6.8,3.7,10.3c0.8,4.1,2.2,7.9,3.4,11.8
		c1,4.3,1.8,8.8,2.1,13.2C470.5,190.6,469.7,192.1,469.4,190.6L469.4,190.6z M49.5,154.9c-0.2-3.8,3.2-6.9,4.4-10.4
		c2.6-5.6,6.4-10.4,9.1-15.9c2.3-4.9,5.9-8.9,8.9-13.3c1.6-4,5.2-6.7,7.6-10.1C85,98.5,91.3,92.4,97.9,87c1.7-0.7,4.1-4.2,5.4-3.2
		c-2.4,3.1-4.5,6.5-7.2,9.4c-3.1,3-6.7,5.8-8.3,9.9c-3.5,2.1-5.1,6-8.1,8.6c-2.9,2.8-5.5,6.2-8.9,8.3c-2.6,2.4-3.3,6.3-5.8,8.6
		c-0.3,3.2-3.6,4.5-3.9,7.7c-1,3.5-4,5.8-5.2,9.2c-2,2.8-2.2,6.4-4.8,8.9C50.4,155.2,50,157.3,49.5,154.9L49.5,154.9L49.5,154.9z
		 M441.7,120c-1.6-1.5-1.4-5.2,0.4-1.7c1.2,1.2,2.8,5.7,0.2,2.5l-0.3-0.4L441.7,120z M438.7,114.2c-2.2-1.4-0.6-3.4,0.5-0.8
		C439.7,114.3,440,115.8,438.7,114.2z M429.8,102.9c-1.8-2.1,0.6-3.6,1.4-0.8C432.2,103.3,430.5,104,429.8,102.9z M426,97.2
		c-1.2-1-4.3-5.7-0.9-3.6c1,1.3,5,4.7,2.8,5.5C427,98.7,426.5,98,426,97.2z M418.7,88.8c-1.7-1.4-3-4.9-0.2-2
		c0.9,0.9,5.1,4.3,2.9,4.7C420.4,90.8,419.6,89.8,418.7,88.8z M411.8,82.5c-4.7-4.8-10.1-8.8-14.9-13.6c-2.2-1.7-6.7-3.6-6.6-6.4
		c7.4,3.1,12,10.1,18.2,14.9c2.2,1.9,5.8,4.5,6.6,6.8C413.7,84.6,412.6,83.4,411.8,82.5L411.8,82.5z M104.6,82.5c1.7-2.9,5.4-4,8-6
		c1.7-0.6,5.2-4.9,6.2-2.6c-3.3,1.7-5.4,5-8.8,6.4C108.9,81,105.6,84.8,104.6,82.5z M119,71.8c1.8-2.2,5.3-2.7,7.2-5.2
		c4.4-2.4,7.8-6.4,12.8-7.7c3.1-1.6,6-3.6,8.9-5.5c3.3-1.5,6.4-3.5,9.9-4.6c3.1-0.4,5.3-3.5,8.5-4c8.5-1.8,16.6-5.1,24.9-7.5
		c3.2-0.9,6.5-1.6,9.8-2.5c5.3-2,10.9-3.5,16.4-4.9c9.3-2.1,19-2.3,28.4-3.4c7.1-1.3,14.3-0.6,21.5-0.5c6.8,0.4,13.9,0.5,20.4,3
		c0.7,2-4.1-0.5-5.6-0.1c-12.9-1.1-25.8-1.2-38.7-0.7c-9.6,0.6-19.1,2-28.3,4.9c-8.3,2.2-16.5,4.7-24.9,6.6
		c-3.7,1.5-7.7,1.9-11.4,3.5c-5.1,1.6-10.2,3.3-15.1,5.5c-3.3,0.9-6,3-9.2,4.1c-2.6,2.1-5.5,3.2-8.5,4.7c-3.8,1.9-7.3,4.5-11,6.4
		c-3.1,1.8-6.5,3-8.9,5.9C124.1,70.2,120.6,74,119,71.8z M383.9,58.8c-5.3-4.2-11.5-7-17.2-10.5c-3.3-0.9-6-2.8-8.5-5
		c-3-2.6-6.6-4.1-10.2-5.5c-2.1-0.2-3-3.7-0.7-1.7c3.3,1.3,6.6,2,9.3,4.6c3.6,0.9,6.3,3.8,9.9,4.6c3.5,3,7.4,5.6,11.5,7.8
		c2.2,2.5,5.7,3.8,7.8,6.1C385.2,59.5,384.5,59.1,383.9,58.8z M122,56.3c1.6-2.8,6.2-3.9,8.9-6.2c3.7-2.3,7.8-4.1,11.5-6.5
		c2.7-2.2,6.6-2.4,9.5-4.4c4.1-1.8,8.3-3.2,12.2-5.3c4-0.7,7.7-2.7,11.6-3.8c3.6-1.2,7.2-2,10.8-2.8c5-2.3,10.5-3.1,15.7-4.8
		c3.7-1.2,7.6-1.8,11.3-2.9c6.2,0,12.1-2.6,18.3-2.6c0.8,2-5,2-6.8,2.7c-6.8,1.7-13.6,3.1-20.5,4.1c-3.4,1.1-6.7,2.3-10.1,3.2
		c-3.9,0.8-7.5,2.1-11.4,3.2c-3.1,1.7-6.6,2.1-9.8,3.4c-6.6,2.2-13,4.8-19.3,7.7c-4.5,1.2-8.6,3.7-13,5.4c-3.3,2.3-7.2,3.4-10.5,5.8
		C127.6,53.3,124.8,56.4,122,56.3L122,56.3z M337.4,33c-3.7-0.7-7-2.5-10.8-3.2c-3.9-1.6-8-2.8-12.1-4.1c-7.4-1.7-15-3.1-22.5-4.5
		c-4.6-1.1,2.1-1.4,3.5-0.8c4.6,1.2,9.4,1,14,2.2c3.8,0.4,7.3,1.2,10.6,3c3.4,1.4,6.6,2.7,10.1,3.6c3.7,1.2,7.6,2.2,11,4.2
		C341.4,34.4,337.9,33.2,337.4,33z M298.8,31.7c-1-0.4-6.5-0.9-3.8-1.9c1.8,0.9,6.6,0.5,6.7,2.3C300.7,32.3,299.6,32.1,298.8,31.7z
		 M279,19.9c-3.5-0.5-7-1.4-10.5-1.6c3.5-1.3,7.6,0.1,11.3,0c2.7,0.2,6.5,0.7,8.2,1.9C285.1,20.8,282,20.1,279,19.9z M264.4,18.5
		c-2.4-1.7,3.7-1.1,0.6,0.1L264.4,18.5z M234.2,17.3c2-0.8,7.3-1.6,7.7-0.3C239.6,17.5,236.5,17.9,234.2,17.3z M244.2,17.2
		c2.2-0.5,7.1-0.9,8,0.3C249.6,17.8,246.7,17.9,244.2,17.2z M433.8,406.4c-0.6-2.1-3.5,2.3-0.5,0.6l0.3-0.3L433.8,406.4z M7.8,200.3
		c1-1.7-5.1,1.2-0.9,0.4l0.5-0.2L7.8,200.3z M8.4,190.2c-2.7-1.6-1.9,1.3,0.4,0.4l-0.1-0.2L8.4,190.2z M8.4,188.1
		c-2.7-1.6-1.9,1.3,0.4,0.4l-0.1-0.2L8.4,188.1z M11.5,185.5c-0.6-2.3-5.4-3.2-2.1-0.3C9.9,185.6,11.2,186.6,11.5,185.5z
		 M19.5,159.6c-1-1.8-4.2,2.1-0.8,0.8C19,160.2,19.5,160,19.5,159.6z M374.9,35.4c-3-1.6-1.7,1,0.5,0.4L374.9,35.4z M131.5,33.8
		c-1.2-1.9-4.8,0.3-1.3,0.5C130.5,34.2,131.5,34.4,131.5,33.8z M133.6,31.4c1-1.4,6-0.5,1.9-1.7C133.6,28.8,130,34.1,133.6,31.4z
		 M362.4,29c-0.7-1.8-3.3,1.2-0.5,0.4L362.4,29z M150.8,22.1c-1.9-3.2-0.7,4.7,0.3,0.5L150.8,22.1z M339.8,17.6
		c-1.6-1.4-4.7,0.4-1,0.2l0.5,0C339.3,17.8,339.8,17.6,339.8,17.6z M174.9,14.1c-1-1.7-5.4-2.9-2.2-0.3
		C173.1,14.2,174.7,15.2,174.9,14.1z M318.2,9.3c-0.5-1.4-4.6-3.3-3-0.1C316.5,8.2,317.2,10.9,318.2,9.3z M297.2,4
		c-1.5-1.9-3.8,0.3-5.3,0.3C293.6,4.4,295.6,4.7,297.2,4z M223.8,3.5c-0.9-1.5-4.1,0.3-1,0.5C223.1,4,223.8,3.9,223.8,3.5z M231.5,3
		c-1-1.3-7.1-0.5-2.6,0.1C229.7,3,230.9,3.9,231.5,3z M484.6,326c-2.3-2.3,1.4-2.5,0.6,0l-0.3,0L484.6,326z M206.8,2.2
		c1.4-1.5,3.8,0.5,0.8,0.2l-0.4,0L206.8,2.2L206.8,2.2z"/>
</g>
</svg>
